IMDB Link/Rating
 
http://www.imdb.com/title/tt0477080/

7.2/10

Source Used

Unstoppable.2010.R5.CaM-AUDIO-Xvid-Noir (Thanks)

General

Complete name : Unstoppable 2010 R5 Cam Audio x264-Jucified (350MB).mp4
Format : MPEG-4
Format profile : Base Media
Codec ID : isom
File size : 351 MiB
Duration : 1h 29mn
Overall bit rate : 547 Kbps

Video

Format : AVC
Format/Info : Advanced Video Codec
Format profile : High@L4.1
Format settings, CABAC : Yes
Format settings, ReFrames : 2 frames
Codec ID : avc1
Codec ID/Info : Advanced Video Coding
Duration : 1h 29mn
Bit rate mode : Variable
Bit rate : 512 Kbps
Maximum bit rate : 1 353 Kbps
Width : 704 pixels
Height : 300 pixels
Display aspect ratio : 2.35
Frame rate mode : Constant
Frame rate : 25.000 fps
Resolution : 24 bits
Colorimetry : 4:2:0
Scan type : Progressive
Bits/(Pixel*Frame) : 0.097
Stream size : 328 MiB (94%)

Audio

Format/Info : Advanced Audio Codec
Format version : Version 4
Format profile : LC
Format settings, SBR : Yes
Format settings, PS : No
Codec ID : 40
Duration : 1h 29mn
Bit rate mode : Variable
Bit rate : 32.0 Kbps
Maximum bit rate : 36.3 Kbps
Channel(s) : 2 channels
Channel positions : L R
Sampling rate : 44.1 KHz
Resolution : 16 bits
Stream size : 20.5 MiB (6%)
 
http://img600.imageshack.us/img600/3784/vlcsnap00002a.png
 
http://img805.imageshack.us/img805/9522/vlcsnap00001q.png
 
http://img820.imageshack.us/img820/6622/vlcsnap00004d.png
